<?xml version="1.0" standalone="no"?>
<!DOCTYPE svg PUBLIC "-//W3C//DTD SVG 20010904//EN"
 "http://www.w3.org/TR/2001/REC-SVG-20010904/DTD/svg10.dtd">
<svg version="1.0" xmlns="http://www.w3.org/2000/svg"
 width="1024.000000pt" height="1024.000000pt" viewBox="0 0 1024.000000 1024.000000"
 preserveAspectRatio="xMidYMid meet">
<metadata>
Created by potrace 1.11, written by Peter Selinger 2001-2013
</metadata>
<g transform="translate(0.000000,1024.000000) scale(0.100000,-0.100000)"
fill="#000000" stroke="none">
<path d="M0 5120 l0 -5120 5120 0 5120 0 0 5120 0 5120 -5120 0 -5120 0 0
-5120z m5414 3734 c3 -9 6 -105 6 -215 l0 -199 264 0 c231 0 265 -2 270 -16
12 -31 7 -379 -6 -392 -9 -9 -83 -12 -270 -12 l-259 0 3 -101 3 -101 45 -17
c208 -79 379 -298 421 -535 6 -36 12 -66 13 -66 2 0 29 9 62 21 332 115 728
142 1074 73 324 -66 682 -234 937 -440 222 -181 389 -399 530 -691 286 -593
279 -1257 -17 -1858 -139 -281 -290 -494 -495 -700 -146 -147 -153 -152 -265
-208 -64 -31 -152 -70 -195 -86 l-80 -29 -5 -943 c-3 -519 -9 -950 -13 -956
-12 -19 -4622 -19 -4634 0 -4 6 -10 437 -13 956 l-5 943 -75 28 c-122 44 -280
128 -351 186 -283 231 -589 685 -722 1075 -148 430 -150 903 -7 1341 47 144
164 385 247 513 216 328 499 561 890 732 312 135 616 189 968 171 175 -9 427
-62 591 -125 8 -3 16 19 23 60 42 243 210 456 424 538 l57 22 0 98 0 99 -267
2 -268 3 0 205 0 205 265 5 265 5 3 200 c1 110 4 206 7 213 3 9 70 12 289 12
250 0 285 -2 290 -16z"/>
<path d="M4988 7511 c-160 -51 -259 -165 -288 -329 -14 -80 0 -182 35 -257 34
-70 127 -158 212 -198 63 -30 76 -32 173 -32 98 0 110 2 173 32 172 82 279
277 248 449 -13 68 -57 163 -100 215 -97 117 -297 170 -453 120z"/>
<path d="M3460 6754 c-261 -33 -529 -136 -732 -280 -188 -134 -370 -352 -472
-567 -204 -429 -201 -904 9 -1329 74 -150 144 -247 260 -363 106 -106 187
-167 350 -260 182 -105 71 -95 1026 -95 l839 0 0 1186 0 1185 -32 41 c-83 102
-277 242 -462 332 -216 105 -374 145 -601 150 -82 3 -166 2 -185 0z"/>
<path d="M6464 6750 c-320 -45 -652 -206 -871 -423 l-83 -82 0 -1192 0 -1193
838 0 838 0 69 33 c97 47 264 147 333 200 198 153 368 397 462 662 191 540 51
1154 -355 1561 -211 211 -493 360 -795 419 -98 19 -347 28 -436 15z"/>
<path d="M3280 2555 l0 -715 1845 0 1845 0 0 715 0 715 -1845 0 -1845 0 0
-715z"/>
</g>
</svg>
